<?xml version="1.0" encoding="utf-8"?>
<!-- Generator: Adobe Illustrator 16.0.0, SVG Export Plug-In . SVG Version: 6.00 Build 0)  -->
<!DOCTYPE svg PUBLIC "-//W3C//DTD SVG 1.1//EN" "http://www.w3.org/Graphics/SVG/1.1/DTD/svg11.dtd">
<svg version="1.1" id="Layer_1" xmlns="http://www.w3.org/2000/svg" xmlns:xlink="http://www.w3.org/1999/xlink" x="0px" y="0px"
	 width="841.889px" height="595.281px" viewBox="0 0 841.889 595.281" enable-background="new 0 0 841.889 595.281"
	 xml:space="preserve">
<path d="M306.447,316.243h42.972l-21.486-61.877L306.447,316.243z M532.56,297.64c-15.382,0-27.904,12.521-27.904,27.903
	c0,15.383,12.522,27.904,27.904,27.904s27.903-12.521,27.903-27.904C560.463,310.162,547.942,297.64,532.56,297.64z M662.778,74.41
	H179.113c-30.811,0-55.808,24.997-55.808,55.808v334.846c0,30.811,24.997,55.808,55.808,55.808h483.665
	c30.81,0,55.807-24.997,55.807-55.808V130.218C718.584,99.407,693.587,74.41,662.778,74.41z M414.643,409.256h-19.695
	c-7.917,0-14.975-5.022-17.579-12.499l-8.568-24.706h-81.724l-8.58,24.706c-2.601,7.485-9.656,12.502-17.58,12.499h-19.695
	c-12.801,0-21.776-12.615-17.579-24.707l62.435-179.781c3.899-11.223,14.478-18.744,26.357-18.742h30.997
	c11.884-0.002,22.464,7.525,26.357,18.754l62.423,179.77C436.407,396.64,427.432,409.256,414.643,409.256z M616.271,390.653
	c0,10.277-8.324,18.603-18.603,18.603h-18.603c-5.639,0-10.51-2.64-13.929-6.604c-10.021,4.256-21.032,6.604-32.577,6.604
	c-46.157,0-83.712-37.554-83.712-83.712c0-46.157,37.555-83.711,83.712-83.711c9.836,0,19.137,2.012,27.903,5.139v-42.344
	c0-10.278,8.325-18.603,18.603-18.603h18.603c10.278,0,18.603,8.324,18.603,18.603V390.653z"/>
<line fill="#FFFFFF" stroke="#FFFFFF" stroke-width="76" stroke-miterlimit="10" x1="-50.227" y1="75.736" x2="791.661" y2="671.017"/>
<line fill="none" stroke="#000000" stroke-width="76" stroke-miterlimit="10" x1="768.693" y1="562.185" x2="57.196" y2="59.096"/>
</svg>
